<svg width="70" height="28" viewBox="0 0 70 28" fill="none" xmlns="http://www.w3.org/2000/svg">
<path d="M27.56 9H29.92V20.88H35.48V23H27.56V9ZM36.3089 18.4C36.3089 17.4533 36.5222 16.62 36.9489 15.9C37.3889 15.18 37.9822 14.62 38.7289 14.22C39.4756 13.8067 40.3222 13.6 41.2689 13.6C42.2156 13.6 43.0556 13.8067 43.7889 14.22C44.5356 14.62 45.1289 15.18 45.5689 15.9C46.0089 16.62 46.2289 17.4533 46.2289 18.4C46.2289 19.3333 46.0089 20.1667 45.5689 20.9C45.1289 21.62 44.5356 22.1867 43.7889 22.6C43.0556 23 42.2156 23.2 41.2689 23.2C40.3222 23.2 39.4756 23 38.7289 22.6C37.9822 22.1867 37.3889 21.62 36.9489 20.9C36.5222 20.1667 36.3089 19.3333 36.3089 18.4ZM38.5289 18.4C38.5289 18.9733 38.6489 19.48 38.8889 19.92C39.1289 20.3467 39.4556 20.6867 39.8689 20.94C40.2822 21.18 40.7489 21.3 41.2689 21.3C41.7756 21.3 42.2356 21.18 42.6489 20.94C43.0756 20.6867 43.4089 20.3467 43.6489 19.92C43.8889 19.48 44.0089 18.9733 44.0089 18.4C44.0089 17.8267 43.8889 17.32 43.6489 16.88C43.4089 16.44 43.0756 16.1 42.6489 15.86C42.2356 15.62 41.7756 15.5 41.2689 15.5C40.7489 15.5 40.2822 15.62 39.8689 15.86C39.4556 16.1 39.1289 16.44 38.8889 16.88C38.6489 17.32 38.5289 17.8267 38.5289 18.4ZM47.7584 23.62H49.8984C49.9118 24.0333 50.0251 24.4067 50.2384 24.74C50.4651 25.0733 50.7718 25.3333 51.1584 25.52C51.5451 25.7067 51.9918 25.8 52.4984 25.8C52.9518 25.8 53.3851 25.6933 53.7984 25.48C54.2118 25.2667 54.5451 24.94 54.7984 24.5C55.0651 24.06 55.1984 23.4933 55.1984 22.8V13.8H57.3184V22.8C57.3184 23.9067 57.0918 24.82 56.6384 25.54C56.1984 26.26 55.6184 26.7933 54.8984 27.14C54.1784 27.5 53.3984 27.68 52.5584 27.68C51.5584 27.68 50.7051 27.5067 49.9984 27.16C49.2918 26.8267 48.7451 26.3533 48.3584 25.74C47.9851 25.1267 47.7851 24.42 47.7584 23.62ZM47.5784 18.36C47.5784 17.3333 47.7851 16.4733 48.1984 15.78C48.6118 15.0733 49.1584 14.5333 49.8384 14.16C50.5318 13.7867 51.2718 13.6 52.0584 13.6C52.8318 13.6 53.5051 13.7933 54.0784 14.18C54.6651 14.5533 55.1251 15.0933 55.4584 15.8C55.8051 16.5067 55.9784 17.36 55.9784 18.36C55.9784 19.3467 55.8051 20.1933 55.4584 20.9C55.1251 21.6067 54.6651 22.1533 54.0784 22.54C53.5051 22.9133 52.8318 23.1 52.0584 23.1C51.2718 23.1 50.5318 22.9133 49.8384 22.54C49.1584 22.1667 48.6118 21.6267 48.1984 20.92C47.7851 20.2133 47.5784 19.36 47.5784 18.36ZM49.8184 18.36C49.8184 18.9733 49.9451 19.4933 50.1984 19.92C50.4518 20.3467 50.7851 20.6733 51.1984 20.9C51.6251 21.1133 52.0851 21.22 52.5784 21.22C52.9918 21.22 53.3984 21.1133 53.7984 20.9C54.2118 20.6867 54.5451 20.3667 54.7984 19.94C55.0651 19.5 55.1984 18.9733 55.1984 18.36C55.1984 17.88 55.1184 17.4667 54.9584 17.12C54.8118 16.76 54.6118 16.46 54.3584 16.22C54.1051 15.9667 53.8184 15.78 53.4984 15.66C53.1918 15.54 52.8851 15.48 52.5784 15.48C52.0851 15.48 51.6251 15.5933 51.1984 15.82C50.7851 16.0333 50.4518 16.3533 50.1984 16.78C49.9451 17.2067 49.8184 17.7333 49.8184 18.36ZM59.2972 18.4C59.2972 17.4533 59.5105 16.62 59.9372 15.9C60.3772 15.18 60.9705 14.62 61.7172 14.22C62.4639 13.8067 63.3105 13.6 64.2572 13.6C65.2039 13.6 66.0439 13.8067 66.7772 14.22C67.5239 14.62 68.1172 15.18 68.5572 15.9C68.9972 16.62 69.2172 17.4533 69.2172 18.4C69.2172 19.3333 68.9972 20.1667 68.5572 20.9C68.1172 21.62 67.5239 22.1867 66.7772 22.6C66.0439 23 65.2039 23.2 64.2572 23.2C63.3105 23.2 62.4639 23 61.7172 22.6C60.9705 22.1867 60.3772 21.62 59.9372 20.9C59.5105 20.1667 59.2972 19.3333 59.2972 18.4ZM61.5172 18.4C61.5172 18.9733 61.6372 19.48 61.8772 19.92C62.1172 20.3467 62.4439 20.6867 62.8572 20.94C63.2705 21.18 63.7372 21.3 64.2572 21.3C64.7639 21.3 65.2239 21.18 65.6372 20.94C66.0639 20.6867 66.3972 20.3467 66.6372 19.92C66.8772 19.48 66.9972 18.9733 66.9972 18.4C66.9972 17.8267 66.8772 17.32 66.6372 16.88C66.3972 16.44 66.0639 16.1 65.6372 15.86C65.2239 15.62 64.7639 15.5 64.2572 15.5C63.7372 15.5 63.2705 15.62 62.8572 15.86C62.4439 16.1 62.1172 16.44 61.8772 16.88C61.6372 17.32 61.5172 17.8267 61.5172 18.4Z" fill="black"/>
<rect x="2" y="7" width="13.3333" height="13.3333" rx="4" fill="#C07FF2"/>
<rect x="9.77734" y="13.6666" width="13.3333" height="13.3333" rx="6.66667" fill="#09AFF4"/>
</svg>
